<?xml version="1.0" encoding="UTF-8" standalone="no"?>
<!-- Created with Inkscape (http://www.inkscape.org/) -->

<svg
   version="1.1"
   id="svg60"
   width="212"
   height="216"
   viewBox="0 0 212 216"
   xmlns="http://www.w3.org/2000/svg"
   xmlns:svg="http://www.w3.org/2000/svg">
  <defs
     id="defs64" />
  <g
     id="g66">
    <path
       id="rect405"
       style="fill:#000000;stroke:none;stroke-width:0.977805"
       d="M 36.111328 14.587891 C 26.804138 14.587891 19.310547 22.079528 19.310547 31.386719 L 19.310547 182.86914 C 19.310547 192.17633 26.804138 199.66992 36.111328 199.66992 L 178.57617 199.66992 C 187.88336 199.66992 195.375 192.17633 195.375 182.86914 L 195.375 31.386719 C 195.375 22.079528 187.88336 14.587891 178.57617 14.587891 L 36.111328 14.587891 z M 149.66211 48.332031 C 152.84195 62.146111 152.07823 79.310373 151.51562 84.568359 C 143.39484 83.261213 136.7081 80.75529 130.09961 76.857422 C 121.47705 71.771606 116.71349 65.627801 112.49609 60.111328 C 109.70677 56.462812 102.59055 58.018732 102.61914 63.859375 L 103.04883 151.56836 C 103.07773 157.48048 109.18466 160.29706 112.06641 156.7207 C 117.07866 150.50031 121.94468 143.90412 129.66992 139.00586 C 135.94708 135.02576 142.98432 132.10328 151.46094 132.44922 C 151.71038 142.18859 151.63236 152.42132 149.63867 165.52539 C 120.12408 168.21539 91.231736 169.11441 63.976562 165.30859 C 62.192793 126.93219 63.803388 87.706948 64.154297 48.796875 L 149.66211 48.332031 z " />
  </g>
</svg>
